<svg width="24" height="24" viewBox="0 0 24 24" fill="none" xmlns="http://www.w3.org/2000/svg">
  <defs>
    <linearGradient id="rocketGradient" x1="0%" y1="0%" x2="100%" y2="100%">
      <stop offset="0%" style="stop-color:#ff6b6b;stop-opacity:1" />
      <stop offset="100%" style="stop-color:#ff8e8e;stop-opacity:1" />
    </linearGradient>
  </defs>
  <path d="M9.5 2.8L8.1 4.2C7.5 4.8 7.5 5.7 8.1 6.3L11.7 9.9L4.2 17.4C3.8 17.8 3.8 18.4 4.2 18.8L5.2 19.8C5.6 20.2 6.2 20.2 6.6 19.8L14.1 12.3L17.7 15.9C18.3 16.5 19.2 16.5 19.8 15.9L21.2 14.5C21.8 13.9 21.8 13 21.2 12.4L12.4 3.6C11.8 3 10.9 3 10.3 3.6L9.5 2.8Z" fill="url(#rocketGradient)"/>
  <ellipse cx="15" cy="9" rx="2" ry="1.5" fill="#ffffff" fill-opacity="0.3"/>
  <path d="M6 18L8 20L10 18L8 16L6 18Z" fill="#ffd700"/>
  <path d="M3 21L5 19L7 21L5 23L3 21Z" fill="#ff6b6b"/>
</svg>