<svg width="24" height="24" viewBox="0 0 24 24" fill="none" xmlns="http://www.w3.org/2000/svg">
  <defs>
    <linearGradient id="sparkleGradient" x1="0%" y1="0%" x2="100%" y2="100%">
      <stop offset="0%" style="stop-color:#ffd700;stop-opacity:1" />
      <stop offset="50%" style="stop-color:#ffed4a;stop-opacity:1" />
      <stop offset="100%" style="stop-color:#ffd700;stop-opacity:1" />
    </linearGradient>
  </defs>
  <path d="M12 1L14.5 8.5L22 11L14.5 13.5L12 21L9.5 13.5L2 11L9.5 8.5L12 1Z" fill="url(#sparkleGradient)"/>
  <path d="M18 3L19 5L21 6L19 7L18 9L17 7L15 6L17 5L18 3Z" fill="url(#sparkleGradient)"/>
  <path d="M6 15L7 17L9 18L7 19L6 21L5 19L3 18L5 17L6 15Z" fill="url(#sparkleGradient)"/>
</svg>